<?xml version="1.0" encoding="utf-8"?>
<svg version="1.1" viewBox="0 0 2048 2048" width="1280" height="1280" xmlns="http://www.w3.org/2000/svg">
  <defs/>
  <path transform="translate(729,205)" d="m0 0h44l23 4 22 6 19 8 21 11 17 12 11 9 7 7 8 7 9 11 10 13 8 13 11 21 9 25 5 22 2 13 1 31-2 21-5 24-7 21v2l29 16 24 13 23 13 24 13 16 9 58 32 54 30 6 3 3-1 7-8 7-7 11-9 18-13 22-12 25-10 25-6 14-2 13-1h22l18 2 25 5 21 7 16 7 19 11 14 10 14 12 16 16 11 14 10 15 13 25 7 20 5 19 3 18 1 10v24l-2 21-5 23-2 9 6 2 52 30 72 42 20 12h3l9-11 5-6h2l2-4 13-12 10-8 15-10 18-10 19-8 19-6 20-4 17-2h27l25 3 21 5 20 7 17 8 18 11 16 12 10 9 17 17 10 13 10 15 8 15 8 19 7 23 5 23v50l-7 30-8 24-8 17-12 20-10 13-9 10-8 9-8 7-14 11-15 10-19 10-23 9-19 5-16 3-18 2h-25l-26-4-24-6-22-9-16-8-18-12-10-8-10-9-6-5-7-8-10-12-5 1-13 8-28 16-48 28-26 15-17 10-14 8h-2l6 26 2 16 1 14v19l-3 24-6 25-7 19-10 21-14 21-8 10-9 10-11 11-11 9-16 11-16 9-17 8-21 7-22 5-20 3h-21l-20-2-17-3-22-6-23-9-21-12-14-10-13-11-7-6-7-8-2-2-5 1-54 30-24 13-23 13-24 13-18 10-74 41-14 8 3 10 5 17 4 21 2 20v11l-2 28-6 26-7 21-7 15-10 18-10 14-9 11-14 15-11 9-12 9-18 11-16 8-15 6-21 6-19 4-8 1h-39l-21-3-23-6-19-7-20-10-11-7-14-10-12-11-8-7-11-12-12-16-12-20-9-19-8-25-4-18-2-18v-32l3-21 6-24 8-21 8-16 11-18 7-9 1-4-13-14-9-11-15-16-7-8-12-14-14-15-7-8-36-40-9-11-12-13-7-8-9-10-7-8-18-20-9-11-14-15-7-8-12-14-12-13-7-8-10-11-7-8-9-10-14-16-5 1-10 6-25 11-16 5-26 5-20 2h-15l-29-3-25-6-25-10-19-10-15-10-16-13-7-6-7-8-11-12-12-17-9-16-8-17-8-24-6-26v-56l8-31 7-20 12-24 10-15 10-13 14-15 14-13 14-10 18-11 21-10 21-7 23-5 18-2h29l29 4 22 6 24 10 15 8 5 2 9-10 8-9 7-8 9-10 7-8 9-10 7-8 9-10 7-8 9-10 7-8 10-11 9-11 13-14 7-8 11-12 7-8 10-11 7-8 9-10 10-11 9-11 15-16 12-14 13-14 7-8 12-14 13-14 14-16-2-5-8-11-9-15-8-16-8-21-6-24-3-21v-32l2-17 4-19 9-27 9-19 11-18 9-12 12-14 12-12 14-11 14-10 18-10 16-7 21-7 23-5zm174 340-7 8-6 6 2 5 10 15 13 20 15 23 13 20 18 27 12 19 10 15 13 20 23 35 15 23 21 32 13 20 1 2h5l16-8 25-12 17-8 2-3-4-18-3-26v-19l2-19 5-25 7-21v-2l-24-13-23-13-24-13-16-9-27-15-26-14-16-9-27-15-24-13-23-13-4-2zm-262 38-8 10-10 11-9 11-8 8-7 8-10 11-7 8-9 10-7 8-9 10-12 14-12 13-7 8-9 10-9 11-7 7-7 8-9 10-12 14-13 14-9 11-7 7-7 8-9 10-12 14-12 13-9 11-14 15-7 8-9 10-1 3 6 7 10 15 10 19 9 23 5 19 2 9 1 1h142l8-30 8-21 10-19 11-17 11-14 14-15 11-9 15-11 15-9 23-11 21-7 23-5 19-2h24l26 3 24 6 19 7 19 9 17 11 13 10 14 12 13 14 10 13 3 2 38-18 32-15 16-7 1-4-9-14-8-12-13-20-15-23-13-20-10-15-15-23-13-20-23-35-15-23-10-15-30-46-6 2-11 4-23 6-24 4h-33l-18-2-25-6-18-6-16-7-15-9zm521 285-28 13-24 11-1 4 10 15 19 29 13 20h3l10-15 17-26 10-15v-4l-1-2h-2l-2-4-7-7-9-11-6-8zm332 6-14 17-14 14-16 12-14 9-23 12-18 7-19 5-15 3-21 2h-20l-25-3-21-5-20-7-6-1-10 16-15 23-19 29-10 15 1 5 13 20 11 17 19 29 10 15 3 1 15-6 17-5 21-4 9-1h32l19 2 22 5 24 8 24 12 12 8 16 12 13 12 8 8 11 14 4-1 14-8 17-10 26-15 17-10 26-15 29-17 14-8 6-3-1-9-5-25-2-17v-22l2-20 5-24 1-8-9-6-16-9-22-13-26-15-27-16-28-16-19-11-3-2zm-449 49-26 12-36 17-28 13-6 3-1 4 4 16 2 18v37l-3 21-3 11 1 5 28 13 66 31 4-1 7-10 11-17 10-15 15-23 22-33-2-5-10-15-15-23-16-24-13-20-9-14zm-638 135-3 9-7 26-9 21-10 18-11 16-2 2 1 5 10 10 9 11 13 14 7 8 10 11 9 11 14 15 7 8 12 14 11 12 7 8 12 14 13 14 7 8 9 10 7 8 18 20 12 14 12 13 7 8 9 10 7 8 11 12 7 8 12 14 14 15 9 11 5-1 23-12 19-7 18-5 21-4 19-1h13l21 2 24 5 24 8 5 1 29-43 11-17 13-20 11-17 12-18 11-17 18-27 18-28 17-26 10-15 10-16 15-22-2-3-26-12-59-28-4 1-8 11-11 12-4 5-8 7-12 10-18 12-21 11-21 8-24 6-19 3-14 1h-12l-30-3-21-5-20-7-13-6-19-10-17-12-14-12-11-11-9-11-11-15-12-21-8-19-5-15-5-21-1-2zm744 29-10 16-26 40-7 11 16 8 29 14 10 4 11-13 9-11 9-9-6-11-26-39-7-10zm-81 125-10 15-14 22-16 24-11 17-17 26-10 15-11 17-15 23-13 20-40 61-11 17-12 18 2 4 12 12 5-1 23-13 26-14 23-13 26-14 16-9 18-10 58-32 21-12 15-8 6-3-4-13-5-19-4-23-1-12v-19l2-21 5-25-16-8-31-15-15-7z" style="fill: rgb(120, 120, 120);"/>
  <path transform="translate(196,887)" d="m0 0h19l19 3 27 9 17 9 15 11 12 11 9 11 6 8 6 11 6 12 5 16 2 7 3 25v10l-3 22-4 15-8 19-9 16-9 11-17 17-14 10-14 8-13 5-13 4-20 4h-25l-24-4-19-7-21-11-10-8-10-9-9-9-12-17-7-12-6-15-6-22-2-20v-9l2-18 6-21 7-16 9-16 8-11 11-12 11-9 15-10 16-8 18-6 16-3z" fill="#E30522"/>
  <path transform="translate(742,887)" d="m0 0h15l19 2 18 5 21 9 12 7 12 9 13 12 9 11 10 15 8 17 6 21 2 13v34l-4 18-6 18-8 16-10 14-9 11-14 13-15 10-16 8-20 7-13 3-9 1h-26l-21-4-20-7-15-8-5-3-12-9-8-7v-2l-4-2-7-8-12-17-8-15-6-17-4-18-1-7v-27l3-18 5-15 7-16 10-17 11-13 7-8 14-11 13-8 15-7 13-5 12-3z" fill="#E30522"/>
  <path transform="translate(1311,1161)" d="m0 0h37l23 5 16 6 19 10 13 10 10 9 10 11 10 15 8 16 6 15 4 21 1 20-1 18-4 18-6 16-8 16-10 15-11 12-7 7-13 10-16 9-11 5-16 5-14 3-10 1h-25l-24-5-20-8-15-8-13-10-12-11-11-13-9-14-8-16-5-15-4-20-1-6v-25l3-17 5-15 7-17 11-18 11-13 11-11 17-12 17-9 21-7z" fill="#E30522"/>
  <path transform="translate(735,273)" d="m0 0h28l12 2 16 4 17 6 15 8 14 10 10 9 7 7 10 13 8 13 8 18 5 17 2 12v35l-4 20-4 12-7 15-6 10-10 14-18 18-14 10-19 10-21 7-17 3-22 1-18-2-17-4-22-9-16-10-10-8-17-17-12-17-8-16-5-13-5-21-1-8v-28l3-16 7-21 12-23 13-17 11-11 18-13 17-9 19-7z" fill="#E30522"/>
  <path transform="translate(1321,614)" d="m0 0h22l21 4 18 6 12 5 15 9 16 13 11 11 11 15 10 19 4 11 4 14 2 9 1 25-1 15-4 18-8 22-9 16-11 14-9 10-13 11-14 9-16 8-11 4-11 3-19 3h-22l-20-3-24-8-17-9-16-12-7-6v-2l-3-1-9-11-11-15-8-16-5-13-4-17-2-17v-18l3-20 7-21 8-16 9-14 8-10 8-9 17-13 16-9 16-7 14-4z" fill="#E30522"/>
  <path transform="translate(1837,887)" d="m0 0h15l19 3 15 4 16 6 11 6 16 11 12 11 7 7 8 11 8 13 8 17 6 23 2 21-1 24-4 17-4 12-5 11-6 12-9 12-9 11-9 9-16 12-14 8-21 8-19 4-8 1h-26l-23-5-13-4-17-8-15-10-10-9-15-15-12-18-8-16-5-15-4-20-1-7v-20l3-21 7-21 12-23 8-11 11-12 12-11 17-11 17-8 16-5 16-3z" fill="#E30522"/>
  <path transform="translate(742,1501)" d="m0 0h12l23 3 9 2 12 4 12 5 15 8 14 10 17 17 9 12 8 14 7 16 4 14 2 8 1 10v32l-4 19-8 22-9 16-8 11-14 15-9 8-15 10-16 8-21 7-20 3h-29l-16-3-15-5-18-8-18-12-10-9-12-12-13-19-10-21-6-22-2-15-1-17 4-26 8-22 11-21 12-16 14-14 19-13 21-10 15-5z" fill="#E30522"/>
  <path transform="translate(201,955)" d="m0 0 12 1 10 4 9 8 5 9 2 6v13l-3 9-6 9h-2v2l-10 6-12 3-3 12-5 8-5 5-5 4-11 4h-13l-11-4-10-9-5-10-2-9 1-16 4-12 5-10 7-9 6-7 13-9 15-6z" fill="#FBFBFB"/>
  <path transform="translate(743,341)" d="m0 0h13l10 3 8 6 7 8 4 10v15l-5 11-9 10-11 5-8 2-3 12-6 9-9 8-9 3-5 1h-7l-11-3-6-4-5-4-6-10-3-10v-9l3-14 4-11 7-11 11-12 13-8 12-5z" fill="#FBFBFB"/>
  <path transform="translate(741,1570)" d="m0 0h16l9 3 6 4 5 5 4 5 3 6 1 5v13l-5 12-8 9-12 6-9 1v7l-4 9-4 6-8 7-10 4-11 1-12-3-8-6-7-8-4-10-1-4v-10l4-16 4-10 10-14 7-7 14-9 15-5z" fill="#FBFBFB"/>
  <path transform="translate(749,955)" d="m0 0 10 1 10 4 9 8 5 9 2 6v14l-5 12-9 9-10 5-9 2-3 12-6 9-7 7-12 5h-15l-10-4-10-9-5-10-2-7v-11l4-17 8-15 9-10 9-8 15-8 12-3z" fill="#FBFBFB"/>
  <path transform="translate(1330,1228)" d="m0 0 13 2 10 6 8 9 4 10v16l-7 14-8 7-9 4-8 2-4 13-6 9-8 7-7 3-5 1h-13l-11-4-9-8-6-12-2-11 2-14 5-15 7-11 11-12 10-7 11-5 11-3z" fill="#FBFBFB"/>
  <path transform="translate(1840,955)" d="m0 0 12 1 9 4 10 9 6 12v17l-6 12-6 7-12 6-9 2-2 11-7 11-9 7-11 4h-13l-9-3-9-7-6-9-4-13 1-13 4-14 6-12 7-9 8-8 11-7 12-5z" fill="#FBFBFB"/>
  <path transform="translate(1328,682)" d="m0 0h7l13 4 10 9 5 8 2 6v15l-4 10-6 8-9 6-9 3-5 1-2 10-4 8-2 3h-2l-2 4-10 6-8 2h-11l-11-4-9-7-6-10-3-11 2-17 4-13 5-9 7-9 8-8 11-7 11-5 9-2z" fill="#FBFBFB"/>
  <path transform="translate(1561,205)" d="m0 0" fill="#FBFBFB"/>
  <path transform="translate(1509,153)" d="m0 0" fill="#FBFBFB"/>
  <path transform="translate(1505,149)" d="m0 0" fill="#FBFBFB"/>
  <path transform="translate(1501,145)" d="m0 0" fill="#FBFBFB"/>
</svg>