<?xml version="1.0" encoding="utf-8"?>
<svg version="1.1" viewBox="0 0 1080 1080" width="1280" height="1280" xmlns="http://www.w3.org/2000/svg">
  <defs/>
  <path d="M 624.958 170.611 L 675.989 172.737 L 707.883 179.116 L 746.157 191.874 L 780.178 211.011 L 803.566 228.021 L 826.957 247.158 L 863.103 281.179 L 884.367 302.442 L 903.504 325.832 L 907.757 330.084 L 929.019 334.338 L 933.272 340.716 L 933.272 366.231 L 958.787 366.231 L 967.293 374.737 L 967.293 402.378 L 963.041 413.01 L 980.051 453.41 L 988.556 487.431 L 990.683 508.694 L 990.683 527.831 L 986.43 555.472 L 975.8 580.99 L 958.787 602.252 L 933.272 621.389 L 897.125 638.398 L 890.747 642.652 L 882.24 642.652 L 880.116 655.408 L 873.735 659.662 L 812.073 661.789 L 331.528 768.104 L 286.874 774.483 L 250.726 774.483 L 220.959 768.104 L 199.695 757.473 L 178.433 740.462 L 133.779 695.808 L 108.264 661.789 L 95.507 640.525 L 80.622 604.378 L 72.117 570.356 L 72.117 515.072 L 80.622 485.306 L 97.632 451.284 L 121.023 421.515 L 138.032 404.504 L 140.159 355.6 L 146.538 349.22 L 157.169 349.22 L 157.169 338.589 L 163.548 332.21 L 235.844 330.084 L 278.369 304.569 L 316.643 283.305 L 357.043 262.042 L 416.578 234.4 L 482.496 206.758 L 535.652 187.621 L 576.052 176.989 L 601.568 172.737 L 624.958 170.611 Z" fill="#99D2ED" style=""/>
  <path d="M 624.958 170.611 L 675.989 172.737 L 707.883 179.116 L 746.157 191.874 L 780.178 211.011 L 803.566 228.021 L 826.957 247.158 L 863.103 281.179 L 884.367 302.442 L 903.504 325.832 L 907.757 330.084 L 929.019 334.338 L 933.272 340.716 L 933.272 366.231 L 958.787 366.231 L 967.293 374.737 L 967.293 402.378 L 963.041 413.01 L 980.051 453.41 L 988.556 487.431 L 990.683 508.694 L 990.683 527.831 L 986.43 555.472 L 975.8 580.99 L 958.787 602.252 L 933.272 621.389 L 901.377 636.274 L 897.125 634.146 L 897.125 538.462 L 890.747 532.084 L 843.966 532.084 L 839.715 536.336 L 837.588 580.99 L 814.198 580.99 L 812.073 538.462 L 805.693 532.084 L 758.914 532.084 L 754.663 536.336 L 752.536 546.968 L 746.157 546.968 L 741.904 534.209 L 737.651 532.084 L 639.842 532.084 L 635.589 536.336 L 633.464 546.968 L 627.083 546.968 L 624.958 504.44 L 618.579 495.937 L 669.61 493.81 L 675.989 487.431 L 678.115 478.925 L 690.874 474.673 L 695.126 461.915 L 701.504 461.915 L 705.757 474.673 L 707.883 476.8 L 822.704 476.8 L 829.083 470.421 L 829.083 391.748 L 822.704 385.368 L 814.198 383.241 L 809.947 370.485 L 805.693 368.357 L 707.883 368.357 L 703.63 372.609 L 703.63 406.631 L 701.504 417.263 L 695.126 417.263 L 692.998 374.737 L 686.62 368.357 L 571.799 368.357 L 567.546 372.609 L 565.421 383.241 L 559.043 383.241 L 554.789 370.485 L 550.536 368.357 L 503.758 368.357 L 499.505 372.609 L 497.378 434.273 L 473.99 434.273 L 471.863 374.737 L 465.484 368.357 L 418.705 368.357 L 414.453 372.609 L 412.327 383.241 L 405.948 383.241 L 401.694 370.485 L 397.443 368.357 L 299.632 368.357 L 295.379 372.609 L 295.379 406.631 L 293.254 417.263 L 286.874 417.263 L 282.622 404.504 L 269.863 400.253 L 269.863 393.873 L 282.622 389.622 L 284.747 385.368 L 284.747 357.726 L 278.369 351.348 L 269.863 349.22 L 265.61 336.463 L 261.359 334.338 L 235.844 332.21 L 246.475 323.705 L 278.369 304.569 L 316.643 283.305 L 357.043 262.042 L 416.578 234.4 L 482.496 206.758 L 535.652 187.621 L 576.052 176.989 L 601.568 172.737 L 624.958 170.611 Z" fill="#F5AB35" style=""/>
  <path d="M 138.032 404.504 L 157.169 410.885 L 157.169 417.263 L 144.411 421.515 L 142.286 423.641 L 142.286 455.537 L 146.538 459.788 L 157.169 461.915 L 161.423 474.673 L 163.548 476.8 L 261.359 476.8 L 267.737 470.421 L 269.863 461.915 L 282.622 459.788 L 293.254 461.915 L 297.506 474.673 L 299.632 476.8 L 414.453 476.8 L 420.831 470.421 L 422.958 461.915 L 429.337 461.915 L 433.59 474.673 L 435.715 476.8 L 550.536 476.8 L 556.915 470.421 L 559.043 444.905 L 565.421 444.905 L 567.546 457.663 L 567.546 489.557 L 571.799 495.937 L 520.767 498.062 L 516.515 502.315 L 514.389 512.947 L 501.63 517.199 L 497.379 529.957 L 484.621 534.209 L 480.368 546.968 L 473.99 546.968 L 469.737 534.209 L 465.484 532.084 L 367.675 532.084 L 363.421 536.336 L 363.421 570.356 L 361.294 580.99 L 348.538 585.241 L 344.284 597.999 L 337.906 597.999 L 333.653 585.241 L 320.895 580.99 L 318.769 566.105 L 320.895 557.599 L 333.653 553.346 L 337.906 540.589 L 350.662 536.336 L 352.79 532.084 L 352.79 504.44 L 346.411 498.062 L 299.632 498.062 L 295.379 502.315 L 293.254 512.947 L 280.495 517.199 L 276.244 529.957 L 269.863 529.957 L 267.737 504.44 L 261.359 498.062 L 214.579 498.062 L 210.326 502.315 L 210.326 636.274 L 214.579 640.525 L 261.359 640.525 L 267.737 634.146 L 269.863 625.641 L 276.244 625.641 L 280.495 638.398 L 282.622 640.525 L 346.411 640.525 L 352.79 634.146 L 354.916 625.641 L 361.294 625.641 L 365.547 638.398 L 367.675 640.525 L 482.496 640.525 L 488.874 634.146 L 491 574.609 L 497.379 574.609 L 499.505 636.274 L 503.758 640.525 L 550.536 640.525 L 556.915 634.146 L 559.043 574.609 L 565.421 574.609 L 567.546 636.274 L 571.799 640.525 L 618.579 640.525 L 624.958 634.146 L 627.083 625.641 L 633.464 625.641 L 637.715 638.398 L 639.842 640.525 L 737.651 640.525 L 744.031 634.146 L 746.157 608.631 L 758.916 606.505 L 769.547 608.631 L 771.673 621.389 L 771.673 653.283 L 775.926 657.536 L 812.073 659.662 L 803.566 663.915 L 331.528 768.104 L 286.874 774.483 L 250.726 774.483 L 220.959 768.104 L 199.695 757.473 L 178.433 740.462 L 133.779 695.808 L 108.264 661.789 L 95.507 640.525 L 80.622 604.378 L 72.117 570.356 L 72.117 515.072 L 80.622 485.306 L 97.632 451.284 L 121.023 421.515 L 138.032 404.504 Z" fill="#F5AB35" style=""/>
  <path d="M 525.021 506.568 L 616.451 506.568 L 616.451 632.02 L 576.052 632.02 L 576.052 563.978 L 548.411 563.978 L 548.411 632.02 L 508.011 632.02 L 508.011 563.978 L 491 563.978 L 491 540.589 L 508.011 540.589 L 508.011 523.579 L 525.021 523.579 L 525.021 506.568 Z" style=""/>
  <path d="M 576.052 376.863 L 684.494 376.863 L 684.494 468.294 L 667.483 468.294 L 667.483 485.306 L 576.052 485.306 L 576.052 461.915 L 644.095 461.915 L 644.095 451.284 L 576.052 451.284 L 576.052 434.273 L 559.043 434.273 L 559.043 393.873 L 576.052 393.873 L 576.052 376.863 Z" style=""/>
  <path d="M 218.832 506.568 L 259.232 506.568 L 259.232 557.599 L 269.863 557.599 L 269.863 540.589 L 286.874 540.589 L 286.874 523.579 L 303.884 523.579 L 303.884 506.568 L 344.284 506.568 L 344.284 529.957 L 327.274 529.957 L 327.274 546.968 L 310.263 546.968 L 310.263 563.978 L 293.254 563.978 L 293.254 574.609 L 310.263 574.609 L 310.263 591.621 L 327.274 591.621 L 327.274 608.631 L 344.284 608.631 L 344.284 632.02 L 286.874 632.02 L 286.874 615.009 L 269.863 615.009 L 269.863 597.999 L 259.232 597.999 L 259.232 632.02 L 218.832 632.02 L 218.832 506.568 Z" style=""/>
  <path d="M 167.801 342.842 L 259.232 342.842 L 259.232 359.853 L 276.244 359.853 L 276.244 383.241 L 235.844 383.241 L 235.844 366.231 L 191.191 366.231 L 191.191 393.873 L 259.232 393.873 L 259.232 410.885 L 276.244 410.885 L 276.244 451.284 L 259.232 451.284 L 259.232 468.294 L 167.801 468.294 L 167.801 451.284 L 150.791 451.284 L 150.791 427.895 L 191.191 427.895 L 191.191 444.905 L 235.844 444.905 L 235.844 417.263 L 167.801 417.263 L 167.801 400.253 L 150.791 400.253 L 150.791 359.853 L 167.801 359.853 L 167.801 342.842 Z" style=""/>
  <path d="M 763.167 540.589 L 803.566 540.589 L 803.566 591.621 L 848.22 591.621 L 848.22 540.589 L 888.62 540.589 L 888.62 632.02 L 871.609 632.02 L 871.609 649.03 L 780.178 649.03 L 780.178 625.641 L 848.22 625.641 L 848.22 615.009 L 780.178 615.009 L 780.178 597.999 L 763.167 597.999 L 763.167 540.589 Z" style=""/>
  <path d="M 644.095 540.589 L 735.526 540.589 L 735.526 557.599 L 752.536 557.599 L 752.536 597.999 L 667.483 597.999 L 667.483 608.631 L 735.526 608.631 L 735.526 632.02 L 644.095 632.02 L 644.095 615.009 L 627.083 615.009 L 627.083 557.599 L 644.095 557.599 L 644.095 540.589 Z" style=""/>
  <path d="M 371.927 540.589 L 463.359 540.589 L 463.359 557.599 L 480.368 557.599 L 480.368 632.02 L 371.927 632.02 L 371.927 615.009 L 354.916 615.009 L 354.916 591.621 L 371.927 591.621 L 371.927 574.609 L 439.968 574.609 L 439.968 563.978 L 371.927 563.978 L 371.927 540.589 Z" style=""/>
  <path d="M 712.136 376.863 L 803.566 376.863 L 803.566 393.873 L 820.578 393.873 L 820.578 468.294 L 712.136 468.294 L 712.136 451.284 L 695.126 451.284 L 695.126 427.895 L 712.136 427.895 L 712.136 410.885 L 780.178 410.885 L 780.178 400.253 L 712.136 400.253 L 712.136 376.863 Z" style=""/>
  <path d="M 303.884 376.863 L 395.316 376.863 L 395.316 393.873 L 412.327 393.873 L 412.327 468.294 L 303.884 468.294 L 303.884 451.284 L 286.874 451.284 L 286.874 427.895 L 303.884 427.895 L 303.884 410.885 L 371.927 410.885 L 371.927 400.253 L 303.884 400.253 L 303.884 376.863 Z" style=""/>
  <path d="M 422.958 376.863 L 463.359 376.863 L 463.359 444.904 L 508.011 444.904 L 508.011 376.863 L 548.411 376.863 L 548.411 468.294 L 439.968 468.294 L 439.968 451.284 L 422.958 451.284 L 422.958 376.863 Z" style=""/>
  <path d="M 882.24 342.842 L 922.641 342.842 L 922.641 376.863 L 956.661 376.863 L 956.661 400.253 L 922.641 400.253 L 922.641 468.294 L 882.24 468.294 L 882.24 400.253 L 848.22 400.253 L 848.22 376.863 L 882.24 376.863 L 882.24 342.842 Z" style=""/>
  <path d="M 877.988 332.21 L 924.767 332.21 L 933.272 340.716 L 933.272 366.231 L 958.787 366.231 L 967.293 374.737 L 967.293 402.378 L 960.915 410.885 L 933.272 410.885 L 933.272 470.421 L 924.767 478.925 L 877.988 478.925 L 871.609 472.547 L 871.609 410.885 L 843.966 410.885 L 837.588 404.504 L 837.588 372.609 L 843.966 366.231 L 871.609 366.231 L 871.609 338.589 L 877.988 332.21 Z M 882.24 342.842 L 882.24 376.863 L 848.22 376.863 L 848.22 400.253 L 882.24 400.253 L 882.24 468.294 L 922.641 468.294 L 922.641 400.253 L 956.661 400.253 L 956.661 376.863 L 922.641 376.863 L 922.641 342.842 L 882.24 342.842 Z" fill="#99D2ED" style=""/>
  <path d="M 599.442 400.253 L 644.095 400.253 L 644.095 427.895 L 599.442 427.895 L 599.442 400.253 Z" fill="#97D1ED" style=""/>
  <path d="M 395.316 597.999 L 439.968 597.999 L 439.968 608.631 L 395.316 608.631 L 395.316 597.999 Z" fill="#96D1ED" style=""/>
  <path d="M 667.483 563.978 L 712.136 563.978 L 712.136 574.609 L 667.483 574.609 L 667.483 563.978 Z" fill="#96D1ED" style=""/>
  <path d="M 735.526 434.273 L 780.178 434.273 L 780.178 444.905 L 735.526 444.905 L 735.526 434.273 Z" fill="#96D1ED" style=""/>
  <path d="M 327.274 434.273 L 371.927 434.273 L 371.927 444.905 L 327.274 444.905 L 327.274 434.273 Z" fill="#96D1ED" style=""/>
  <path d="M 548.411 529.957 L 576.052 529.957 L 576.052 540.589 L 548.411 540.589 L 548.411 529.957 Z" fill="#96D1ED" style=""/>
  <path d="M 201.822 427.895 L 225.211 427.895 L 225.211 434.273 L 201.822 434.273 L 201.822 427.895 Z" fill="#F5AB35" style=""/>
  <path d="M 610.073 410.885 L 633.464 410.885 L 633.464 417.263 L 610.073 417.263 L 610.073 410.885 Z" fill="#F5AB35" style=""/>
  <path d="M 201.822 376.863 L 225.211 376.863 L 225.211 383.241 L 201.822 383.241 L 201.822 376.863 Z" fill="#F5AB35" style=""/>
</svg>