<svg version="1.0" width="1365.333" height="1365.333" viewBox="0 0 1024 1024" xmlns="http://www.w3.org/2000/svg"><path d="M381.679 394.683a95.027 95.027 0 00-5.576.179c-1.9.115-3.835.288-5.792.52-1.958.233-3.937.524-5.925.876-1.987.352-3.982.765-5.972 1.242a96.836 96.836 0 00-5.935 1.621 88.655 88.655 0 00-5.815 2.012 78.406 78.406 0 00-5.61 2.415 68.939 68.939 0 00-5.321 2.831 59.5 59.5 0 00-4.947 3.259 51.21 51.21 0 00-4.49 3.698 44.647 44.647 0 00-3.949 4.151 39.581 39.581 0 00-3.323 4.615 36.464 36.464 0 00-4.43 10.672 38.372 38.372 0 00-.939 6.081 43.393 43.393 0 00.024 6.594 148.982 148.982 0 00.3 3.449 95.516 95.516 0 00.419 3.557c.084.596.175 1.194.274 1.79.1.595.209 1.19.328 1.781.119.591.248 1.179.389 1.761.141.582.294 1.159.459 1.729.166.57.344 1.132.537 1.686.193.553.4 1.097.622 1.63.223.533.461 1.055.715 1.563.255.509.527 1.004.817 1.484.29.48.598.945.926 1.393.328.448.675.878 1.043 1.29.368.411.758.804 1.169 1.175.412.372.845.722 1.302 1.05a89.22 89.22 0 003.56 2.423 98.895 98.895 0 003.66 2.251c1.236.723 2.486 1.421 3.75 2.095 1.264.674 2.541 1.325 3.83 1.954 1.289.63 2.59 1.239 3.901 1.83a160.47 160.47 0 003.962 1.72c1.33.557 2.669 1.098 4.015 1.627a243.93 243.93 0 004.057 1.548c1.359.505 2.723 1 4.091 1.486 1.368.487 2.74.966 4.114 1.439 1.374.474 2.751.943 4.128 1.409 1.378.466 2.756.93 4.134 1.393 1.378.464 2.755.928 4.129 1.394 1.375.467 2.748.936 4.116 1.41 1.369.474 2.734.954 4.093 1.441 1.359.487 2.713.983 4.06 1.488.84.316 1.685.614 2.536.899.851.285 1.708.555 2.568.814.861.259 1.726.506 2.594.744.868.238 1.74.467 2.614.689.874.223 1.751.438 2.629.649.878.211 1.758.418 2.638.623.88.205 1.761.408 2.641.612.88.204 1.76.408 2.638.615.879.208 1.756.418 2.631.633.875.216 1.748.437 2.617.666.87.23 1.736.467 2.597.714.862.248 1.72.506 2.573.776.853.271 1.7.554 2.541.852.842.299 1.677.613 2.505.944.829.332 1.65.682 2.463 1.051.813.37 1.619.759 2.415 1.171.23.119.459.254.685.404.227.149.452.313.673.49.221.177.439.366.652.567a12.071 12.071 0 011.208 1.328 12.728 12.728 0 011.453 2.325c.131.273.25.548.357.825.106.277.2.555.279.833.079.278.144.556.193.832.049.277.083.551.1.822.017.271.016.538-.002.8a5.12 5.12 0 01-.112.77 4.455 4.455 0 01-.23.73 4.118 4.118 0 01-.356.68 13.21 13.21 0 01-.791 1.095c-.28.349-.576.682-.886 1-.31.319-.635.623-.973.914-.337.291-.688.569-1.05.835-.362.267-.735.521-1.119.765-.383.244-.776.477-1.178.7-.401.224-.811.439-1.228.646a36.12 36.12 0 01-1.271.597c-.429.192-.864.378-1.303.558a76.979 76.979 0 01-2.671 1.025c-.449.164-.899.324-1.349.483-.45.16-.899.317-1.346.475-.448.157-.893.314-1.335.472a73.35 73.35 0 00-2.6.971 11.285 11.285 0 01-1.174.397 13.632 13.632 0 01-1.207.287 18.405 18.405 0 01-1.855.256 21.489 21.489 0 01-1.257.078 32.986 32.986 0 01-1.896.018c-.21-.003-.421-.007-.631-.012l-.629-.019-.627-.022-.624-.025a218.02 218.02 0 01-4.466-.224 188.662 188.662 0 01-8.512-.705 154.85 154.85 0 01-8.086-1.078 140.773 140.773 0 01-7.82-1.488 136.713 136.713 0 01-3.861-.909 138.074 138.074 0 01-3.855-1.023 146.395 146.395 0 01-3.868-1.144 158.987 158.987 0 01-3.903-1.268 170.144 170.144 0 01-3.957-1.397 194.95 194.95 0 01-4.032-1.529 223.39 223.39 0 01-4.125-1.667 255.998 255.998 0 01-4.24-1.809 293.615 293.615 0 01-4.375-1.955 2.603 2.603 0 01-.552-.375 9.62 9.62 0 01-.693-.657 25.7 25.7 0 01-.818-.887 72.37 72.37 0 01-.927-1.067c-.325-.379-.666-.781-1.02-1.195-.353-.414-.719-.841-1.095-1.273a75.083 75.083 0 00-1.157-1.3 50.06 50.06 0 00-1.2-1.276 34.49 34.49 0 00-1.228-1.2 23.319 23.319 0 00-1.239-1.074 14.713 14.713 0 00-1.235-.895 9.133 9.133 0 00-1.214-.668 5.606 5.606 0 00-1.177-.388 3.63 3.63 0 00-1.123-.058 2.997 2.997 0 00-1.054.324 3.64 3.64 0 00-.968.756 150.317 150.317 0 00-1.8 1.973 221.122 221.122 0 00-3.802 4.336 197.38 197.38 0 00-1.479 1.756 130.829 130.829 0 00-2.975 3.7 89.967 89.967 0 00-1.396 1.852c-.446.61-.872 1.21-1.268 1.792a41.534 41.534 0 00-1.091 1.686 23.038 23.038 0 00-.863 1.534c-.244.48-.442.928-.586 1.335a4.532 4.532 0 00-.259 1.091c-.026.318.011.588.119.801a69.472 69.472 0 008.005 12.373 69.137 69.137 0 006.452 6.928 72.276 72.276 0 003.519 3.088 74.996 74.996 0 003.695 2.848c1.26.91 2.547 1.781 3.859 2.614a81.981 81.981 0 004.007 2.388 86.132 86.132 0 004.143 2.167 92.31 92.31 0 004.264 1.955c1.441.617 2.899 1.2 4.372 1.749a104.11 104.11 0 004.465 1.55c1.503.484 3.019.937 4.546 1.358a124.167 124.167 0 009.273 2.169 145.944 145.944 0 0012.4 1.861 144.31 144.31 0 008.193.64 151.31 151.31 0 008.194.189 169.347 169.347 0 008.243-.233 185.128 185.128 0 008.343-.629 222.476 222.476 0 008.493-1c1.431-.196 2.871-.406 4.32-.63a295.848 295.848 0 008.814-1.504 85.493 85.493 0 006.57-1.48 70.945 70.945 0 005.976-1.88 59.521 59.521 0 005.397-2.269 51.509 51.509 0 004.836-2.643 45.557 45.557 0 004.292-3.004 42.034 42.034 0 003.763-3.353 40.594 40.594 0 006.01-7.698 42.782 42.782 0 002.28-4.319 46.714 46.714 0 001.818-4.615c.532-1.586.989-3.22 1.374-4.898.386-1.679.7-3.402.946-5.168s.423-3.575.534-5.425c.112-1.849.158-3.74.141-5.669a96.964 96.964 0 00-.238-5.899 113.91 113.91 0 00-.599-6.116 19.581 19.581 0 00-1.237-4.8 23.338 23.338 0 00-2.368-4.446 30.876 30.876 0 00-3.34-4.1 42.539 42.539 0 00-4.156-3.766 58.59 58.59 0 00-4.814-3.44 79.104 79.104 0 00-5.315-3.126 103.122 103.122 0 00-5.658-2.819 131.943 131.943 0 00-5.845-2.523 162.798 162.798 0 00-5.873-2.236 192.358 192.358 0 00-5.745-1.96 231.776 231.776 0 00-5.458-1.693 277.872 277.872 0 00-5.015-1.435c-1.58-.436-3.06-.832-4.414-1.188-1.354-.356-2.581-.672-3.656-.95a211.909 211.909 0 01-2.74-.722c-.743-.203-1.307-.37-1.666-.503a49.744 49.744 0 00-3.95-1.258 74.872 74.872 0 00-4.198-1.019 120.139 120.139 0 00-4.36-.842 237.092 237.092 0 00-4.437-.729c-1.482-.231-2.964-.454-4.429-.679a291.176 291.176 0 01-4.336-.693c-1.42-.24-2.811-.493-4.157-.769a67.715 67.715 0 01-3.894-.91 40.262 40.262 0 01-3.545-1.113 24.849 24.849 0 01-3.111-1.38 15.779 15.779 0 01-2.591-1.71 11.016 11.016 0 01-1.988-2.103 9.465 9.465 0 01-1.298-2.56 10.92 10.92 0 01-.523-3.08c-.036-1.12.071-2.338.336-3.664.265-1.325.687-2.758 1.281-4.31.05-.13.113-.254.188-.373.076-.119.163-.232.261-.341.098-.108.207-.211.325-.309.118-.098.245-.191.38-.28.135-.088.278-.172.427-.251a6.89 6.89 0 01.465-.223 10.364 10.364 0 011.01-.37 11.754 11.754 0 011.059-.276 15.308 15.308 0 011.039-.192c.168-.025.332-.048.491-.068a20.073 20.073 0 01.882-.084c.133-.009.258-.015.373-.02l2.187-.08 2.187-.081 2.187-.079 2.187-.079 2.187-.077 2.187-.075 2.188-.072 2.187-.068a1552.42 1552.42 0 014.375-.124 808.598 808.598 0 018.752-.178 534.156 534.156 0 014.376-.045 36.648 36.648 0 015.149.335c.828.112 1.643.251 2.446.412.804.16 1.597.343 2.38.544a53.93 53.93 0 012.326.656 66.27 66.27 0 012.286.745c.757.261 1.509.533 2.259.812.75.28 1.498.567 2.246.857.748.291 1.496.585 2.246.88.751.294 1.504.589 2.261.88.757.292 1.519.579 2.287.86.768.28 1.544.554 2.328.816.784.263 1.577.514 2.381.751.805.237 1.621.459 2.45.663.829.205 1.672.391 2.53.555.858.164 1.733.306 2.625.422a14.267 14.267 0 001.758.12 16.33 16.33 0 002.657-.198 19.242 19.242 0 001.764-.353 20.493 20.493 0 001.74-.509 22.829 22.829 0 001.7-.644c.28-.117.557-.24.831-.367a27.383 27.383 0 002.392-1.248c.256-.15.509-.302.758-.458.128-.08.288-.215.476-.4.187-.185.403-.419.641-.697.239-.277.5-.597.781-.955s.581-.752.895-1.178c.314-.425.643-.882.982-1.364.339-.481.688-.988 1.043-1.513.356-.525.717-1.068 1.079-1.625a114.104 114.104 0 003.188-5.18 79.367 79.367 0 001.825-3.339c.27-.528.519-1.039.744-1.525.225-.487.426-.949.597-1.381.172-.431.315-.833.424-1.198.11-.364.186-.693.225-.979a4.453 4.453 0 00-.007-1.258 5.08 5.08 0 00-.344-1.22 6.841 6.841 0 00-.642-1.178 9.74 9.74 0 00-.903-1.133 14.01 14.01 0 00-1.123-1.085 19.53 19.53 0 00-1.307-1.036 26.813 26.813 0 00-1.451-.983 35.536 35.536 0 00-1.557-.928 45.7 45.7 0 00-1.625-.869c-.548-.28-1.102-.55-1.654-.81a70.58 70.58 0 00-1.645-.746 86.395 86.395 0 00-3.109-1.291c-.485-.192-.949-.372-1.386-.54-.437-.168-.848-.323-1.224-.466-.377-.143-.72-.272-1.023-.389a75.948 75.948 0 01-1.208-.48c-.201-.081-.401-.164-.602-.247l-.601-.252a153.388 153.388 0 01-1.199-.506l-.6-.253a108.093 108.093 0 00-1.807-.74 40.005 40.005 0 00-1.214-.462 34.187 34.187 0 00-2.469-.804 92.096 92.096 0 00-3.886-.993 112.877 112.877 0 00-4.054-.866 134.187 134.187 0 00-4.185-.747 159.308 159.308 0 00-4.278-.638 191.748 191.748 0 00-4.331-.537 213.892 213.892 0 00-4.346-.444 252.543 252.543 0 00-8.583-.646 339.364 339.364 0 00-12.026-.491 419.042 419.042 0 00-7.002-.111 643.252 643.252 0 00-5.83-.018l-2.379.005z" fill="#ffcc14"/><path d="M469.537 372.558c-.535.059.528.966.6 1.5.231 1.721.299 3.464.3 5.2.032 63.933-6.695 128.197-.2 191.8.681 6.669 13.3 1.905 20 2.1 7.103.206 14.214-.362 21.3-.9.852-.065 2.295-.052 2.4-.9 1.114-9.024.344-51.525.3-56.5-.036-4.133-2.887-9.347-.1-12.4 1.897-2.077 4.576 3.359 6.4 5.5 8.873 10.412 16.856 24.671 24.7 35.7 5.62 7.902 11.256 15.82 16.9 23.7 1.413 1.973 2.029 5.285 4.4 5.8 9.476 2.058 39.554-1.298 47.7-3.7.192-.057-4.477-6.621-5-7.3-5.023-6.521-9.47-13.205-14-20-11.46-17.191-24.3-35.421-36.9-52-4.871-6.409-9.476-12.34-14-19-.781-1.149-2.467-2.26-2.1-3.6 2.162-7.883 11.259-17.337 16-24 9.683-13.609 19.751-27.026 29-40.9 4.994-7.491 10.461-14.569 15-22.4 1.348-2.325 6.468-5.937 4-7-6.988-3.011-15.193-.917-22.8-1.1-7.631-.184-15.558-2.09-22.9 0-3.059.871-3.354 5.41-5.2 8-4.844 6.798-10.331 13.144-15.1 20-5.09 7.317-10.126 14.671-15.2 22-2.146 3.1-9.531 13.51-10 12.4-6.401-15.164 5.721-44.074-1.9-58.3-.646-1.206 1.561-3.956.2-4.1-12.542-1.327-36.339-.418-43.8.4zm44.4 160.3c.385.923-.107-.257 0 0z"/></svg>