<?xml version="1.0" encoding="utf-8"?>
<svg version="1.0" width="1024.000000pt" height="1024.000000pt" viewBox="0 0 1024.000000 1024.000000" preserveAspectRatio="xMidYMid meet" xmlns="http://www.w3.org/2000/svg">
  <defs/>
  <path d="M 381.679 394.683 C 379.866 394.687 378.002 394.746 376.103 394.862 C 374.203 394.977 372.268 395.15 370.311 395.382 C 368.353 395.615 366.374 395.906 364.386 396.258 C 362.399 396.61 360.404 397.023 358.414 397.5 C 356.425 397.977 354.442 398.516 352.479 399.121 C 350.516 399.726 348.573 400.396 346.664 401.133 C 344.755 401.87 342.88 402.674 341.054 403.548 C 339.227 404.422 337.449 405.365 335.733 406.379 C 334.017 407.394 332.363 408.479 330.786 409.638 C 329.208 410.797 327.707 412.029 326.296 413.336 C 324.885 414.644 323.564 416.027 322.347 417.487 C 321.13 418.947 320.018 420.485 319.024 422.102 C 318.031 423.719 317.155 425.415 316.412 427.193 C 315.669 428.971 315.059 430.831 314.594 432.774 C 314.13 434.716 313.812 436.743 313.655 438.855 C 313.498 440.966 313.501 443.164 313.679 445.449 C 313.723 446.009 313.769 446.578 313.818 447.154 C 313.868 447.729 313.921 448.311 313.979 448.898 C 314.037 449.484 314.1 450.075 314.17 450.669 C 314.239 451.262 314.315 451.858 314.398 452.455 C 314.482 453.051 314.573 453.649 314.672 454.245 C 314.772 454.84 314.881 455.435 315 456.026 C 315.119 456.617 315.248 457.205 315.389 457.787 C 315.53 458.369 315.683 458.946 315.848 459.516 C 316.014 460.086 316.192 460.648 316.385 461.202 C 316.578 461.755 316.785 462.299 317.007 462.832 C 317.23 463.365 317.468 463.887 317.722 464.395 C 317.977 464.904 318.249 465.399 318.539 465.879 C 318.829 466.359 319.137 466.824 319.465 467.272 C 319.793 467.72 320.14 468.15 320.508 468.562 C 320.876 468.973 321.266 469.366 321.677 469.737 C 322.089 470.109 322.522 470.459 322.979 470.787 C 324.148 471.625 325.335 472.432 326.539 473.21 C 327.743 473.988 328.964 474.737 330.199 475.461 C 331.435 476.184 332.685 476.882 333.949 477.556 C 335.213 478.23 336.49 478.881 337.779 479.51 C 339.068 480.14 340.369 480.749 341.68 481.34 C 342.991 481.931 344.312 482.503 345.642 483.06 C 346.972 483.617 348.311 484.158 349.657 484.687 C 351.003 485.215 352.356 485.73 353.714 486.235 C 355.073 486.74 356.437 487.235 357.805 487.721 C 359.173 488.208 360.545 488.687 361.919 489.16 C 363.293 489.634 364.67 490.103 366.047 490.569 C 367.425 491.035 368.803 491.499 370.181 491.962 C 371.559 492.426 372.936 492.89 374.31 493.356 C 375.685 493.823 377.058 494.292 378.426 494.766 C 379.795 495.24 381.16 495.72 382.519 496.207 C 383.878 496.694 385.232 497.19 386.579 497.695 C 387.419 498.011 388.264 498.309 389.115 498.594 C 389.966 498.879 390.823 499.149 391.683 499.408 C 392.544 499.667 393.409 499.914 394.277 500.152 C 395.145 500.39 396.017 500.619 396.891 500.841 C 397.765 501.064 398.642 501.279 399.52 501.49 C 400.398 501.701 401.278 501.908 402.158 502.113 C 403.038 502.318 403.919 502.521 404.799 502.725 C 405.679 502.929 406.559 503.133 407.437 503.34 C 408.316 503.548 409.193 503.758 410.068 503.973 C 410.943 504.189 411.816 504.41 412.685 504.639 C 413.555 504.869 414.421 505.106 415.282 505.353 C 416.144 505.601 417.002 505.859 417.855 506.129 C 418.708 506.4 419.555 506.683 420.396 506.981 C 421.238 507.28 422.073 507.594 422.901 507.925 C 423.73 508.257 424.551 508.607 425.364 508.976 C 426.177 509.346 426.983 509.735 427.779 510.147 C 428.009 510.266 428.238 510.401 428.464 510.551 C 428.691 510.7 428.916 510.864 429.137 511.041 C 429.358 511.218 429.576 511.407 429.789 511.608 C 430.002 511.809 430.21 512.022 430.412 512.243 C 430.614 512.465 430.809 512.697 430.997 512.936 C 431.185 513.175 431.366 513.423 431.537 513.676 C 431.709 513.93 431.872 514.19 432.024 514.454 C 432.177 514.719 432.319 514.989 432.45 515.261 C 432.581 515.534 432.7 515.809 432.807 516.086 C 432.913 516.363 433.007 516.641 433.086 516.919 C 433.165 517.197 433.23 517.475 433.279 517.751 C 433.328 518.028 433.362 518.302 433.379 518.573 C 433.396 518.844 433.395 519.111 433.377 519.373 C 433.358 519.636 433.322 519.893 433.265 520.143 C 433.209 520.394 433.132 520.638 433.035 520.873 C 432.938 521.109 432.82 521.336 432.679 521.553 C 432.432 521.935 432.168 522.299 431.888 522.648 C 431.608 522.997 431.312 523.33 431.002 523.648 C 430.692 523.967 430.367 524.271 430.029 524.562 C 429.692 524.853 429.341 525.131 428.979 525.397 C 428.617 525.664 428.244 525.918 427.86 526.162 C 427.477 526.406 427.084 526.639 426.682 526.862 C 426.281 527.086 425.871 527.301 425.454 527.508 C 425.037 527.714 424.613 527.913 424.183 528.105 C 423.754 528.297 423.319 528.483 422.88 528.663 C 422.441 528.843 421.998 529.018 421.552 529.188 C 421.107 529.359 420.658 529.525 420.209 529.688 C 419.76 529.852 419.31 530.012 418.86 530.171 C 418.41 530.331 417.961 530.488 417.514 530.646 C 417.066 530.803 416.621 530.96 416.179 531.118 C 415.737 531.276 415.298 531.435 414.864 531.596 C 414.43 531.758 414.002 531.922 413.579 532.089 C 413.387 532.166 413.192 532.237 412.997 532.303 C 412.801 532.369 412.604 532.43 412.405 532.486 C 412.207 532.543 412.007 532.595 411.805 532.642 C 411.604 532.69 411.402 532.734 411.198 532.773 C 410.995 532.813 410.79 532.848 410.585 532.879 C 410.379 532.911 410.173 532.939 409.966 532.964 C 409.759 532.989 409.551 533.011 409.343 533.029 C 409.135 533.048 408.926 533.063 408.716 533.076 C 408.507 533.089 408.297 533.099 408.086 533.107 C 407.876 533.115 407.666 533.121 407.455 533.125 C 407.244 533.129 407.033 533.13 406.822 533.13 C 406.611 533.13 406.401 533.128 406.19 533.125 C 405.98 533.122 405.769 533.118 405.559 533.113 C 405.349 533.107 405.139 533.101 404.93 533.094 C 404.721 533.087 404.511 533.08 404.303 533.072 C 404.094 533.064 403.886 533.056 403.679 533.047 C 402.164 532.986 400.676 532.912 399.213 532.823 C 397.75 532.735 396.312 532.633 394.894 532.515 C 393.477 532.398 392.08 532.266 390.701 532.118 C 389.323 531.971 387.962 531.808 386.615 531.628 C 385.269 531.449 383.936 531.253 382.615 531.04 C 381.294 530.827 379.984 530.597 378.682 530.349 C 377.38 530.101 376.085 529.836 374.795 529.552 C 373.504 529.268 372.219 528.965 370.934 528.643 C 369.649 528.322 368.365 527.981 367.079 527.62 C 365.793 527.259 364.505 526.878 363.211 526.476 C 361.917 526.074 360.617 525.652 359.308 525.208 C 357.999 524.764 356.681 524.299 355.351 523.811 C 354.021 523.324 352.678 522.814 351.319 522.282 C 349.961 521.749 348.587 521.194 347.194 520.615 C 345.801 520.036 344.389 519.433 342.954 518.806 C 341.519 518.179 340.062 517.528 338.579 516.851 C 338.421 516.779 338.236 516.651 338.027 516.476 C 337.819 516.301 337.587 516.08 337.334 515.819 C 337.081 515.559 336.807 515.261 336.516 514.932 C 336.224 514.604 335.914 514.245 335.589 513.865 C 335.264 513.486 334.923 513.084 334.569 512.67 C 334.216 512.256 333.85 511.829 333.474 511.397 C 333.098 510.965 332.711 510.529 332.317 510.097 C 331.924 509.665 331.523 509.237 331.117 508.821 C 330.712 508.406 330.301 508.003 329.889 507.621 C 329.477 507.239 329.063 506.879 328.65 506.547 C 328.237 506.216 327.824 505.915 327.415 505.652 C 327.006 505.388 326.601 505.163 326.201 504.984 C 325.802 504.806 325.409 504.673 325.024 504.596 C 324.64 504.519 324.265 504.497 323.901 504.538 C 323.538 504.58 323.185 504.685 322.847 504.862 C 322.509 505.039 322.186 505.289 321.879 505.618 C 321.84 505.66 321.739 505.769 321.584 505.937 C 321.43 506.104 321.222 506.331 320.968 506.609 C 320.714 506.888 320.415 507.218 320.079 507.591 C 319.742 507.965 319.369 508.382 318.967 508.835 C 318.565 509.289 318.134 509.778 317.683 510.296 C 317.232 510.814 316.761 511.36 316.277 511.927 C 315.794 512.494 315.298 513.082 314.798 513.683 C 314.299 514.283 313.796 514.897 313.297 515.516 C 312.799 516.136 312.305 516.76 311.823 517.383 C 311.342 518.005 310.874 518.625 310.427 519.235 C 309.981 519.845 309.555 520.445 309.159 521.027 C 308.763 521.61 308.397 522.174 308.068 522.713 C 307.74 523.252 307.449 523.766 307.205 524.247 C 306.961 524.727 306.763 525.175 306.619 525.582 C 306.476 525.989 306.387 526.355 306.36 526.673 C 306.334 526.991 306.371 527.261 306.479 527.474 C 307.246 528.987 308.055 530.452 308.906 531.872 C 309.757 533.291 310.649 534.665 311.579 535.993 C 312.51 537.322 313.479 538.606 314.484 539.847 C 315.49 541.087 316.532 542.284 317.608 543.438 C 318.684 544.593 319.794 545.704 320.936 546.775 C 322.078 547.845 323.252 548.874 324.455 549.863 C 325.658 550.852 326.891 551.801 328.15 552.711 C 329.41 553.621 330.697 554.492 332.009 555.325 C 333.321 556.159 334.657 556.954 336.016 557.713 C 337.375 558.472 338.757 559.194 340.159 559.88 C 341.561 560.567 342.983 561.218 344.423 561.835 C 345.864 562.452 347.322 563.035 348.795 563.584 C 350.269 564.134 351.758 564.65 353.26 565.134 C 354.763 565.618 356.279 566.071 357.806 566.492 C 359.332 566.914 360.87 567.304 362.416 567.665 C 363.962 568.027 365.517 568.358 367.079 568.661 C 368.469 568.931 369.855 569.179 371.236 569.406 C 372.617 569.634 373.993 569.84 375.367 570.025 C 376.74 570.211 378.111 570.377 379.479 570.522 C 380.847 570.668 382.213 570.794 383.579 570.9 C 384.944 571.007 386.308 571.094 387.672 571.162 C 389.037 571.231 390.401 571.28 391.766 571.311 C 393.131 571.343 394.497 571.356 395.866 571.351 C 397.234 571.347 398.605 571.325 399.978 571.286 C 401.351 571.247 402.728 571.191 404.109 571.118 C 405.489 571.045 406.874 570.956 408.265 570.851 C 409.655 570.746 411.05 570.625 412.452 570.489 C 413.854 570.352 415.261 570.2 416.677 570.033 C 418.092 569.867 419.514 569.685 420.945 569.489 C 422.376 569.293 423.816 569.083 425.265 568.859 C 426.714 568.635 428.172 568.397 429.641 568.146 C 431.11 567.896 432.589 567.632 434.079 567.355 C 436.37 566.93 438.559 566.436 440.649 565.875 C 442.739 565.315 444.73 564.687 446.625 563.995 C 448.52 563.303 450.318 562.546 452.022 561.726 C 453.727 560.907 455.338 560.025 456.858 559.083 C 458.379 558.142 459.808 557.14 461.15 556.079 C 462.492 555.019 463.745 553.901 464.913 552.726 C 466.082 551.552 467.165 550.322 468.166 549.038 C 469.166 547.755 470.085 546.417 470.923 545.028 C 471.762 543.639 472.521 542.199 473.203 540.709 C 473.885 539.219 474.49 537.68 475.021 536.094 C 475.553 534.508 476.01 532.874 476.395 531.196 C 476.781 529.517 477.095 527.794 477.341 526.028 C 477.587 524.262 477.764 522.453 477.875 520.603 C 477.987 518.754 478.033 516.863 478.016 514.934 C 477.999 513.006 477.918 511.039 477.778 509.035 C 477.638 507.032 477.437 504.993 477.179 502.919 C 476.973 501.259 476.551 499.66 475.942 498.119 C 475.332 496.579 474.534 495.097 473.574 493.673 C 472.614 492.25 471.492 490.883 470.234 489.573 C 468.976 488.262 467.582 487.008 466.078 485.807 C 464.574 484.607 462.961 483.46 461.264 482.367 C 459.567 481.273 457.787 480.232 455.949 479.241 C 454.112 478.251 452.217 477.312 450.291 476.422 C 448.365 475.533 446.408 474.692 444.446 473.899 C 442.484 473.107 440.518 472.362 438.573 471.663 C 436.628 470.964 434.704 470.311 432.828 469.703 C 430.952 469.095 429.124 468.531 427.37 468.01 C 425.615 467.489 423.935 467.012 422.355 466.575 C 420.775 466.139 419.295 465.743 417.941 465.387 C 416.587 465.031 415.36 464.715 414.285 464.437 C 413.211 464.159 412.289 463.919 411.545 463.715 C 410.802 463.512 410.238 463.345 409.879 463.212 C 408.613 462.746 407.292 462.33 405.929 461.954 C 404.566 461.578 403.162 461.242 401.731 460.935 C 400.3 460.629 398.842 460.351 397.371 460.093 C 395.9 459.835 394.416 459.595 392.934 459.364 C 391.452 459.133 389.97 458.91 388.505 458.685 C 387.039 458.46 385.589 458.232 384.169 457.992 C 382.749 457.752 381.358 457.499 380.012 457.223 C 378.665 456.946 377.363 456.647 376.118 456.313 C 374.874 455.98 373.687 455.612 372.573 455.2 C 371.459 454.788 370.418 454.332 369.462 453.82 C 368.507 453.309 367.639 452.742 366.871 452.11 C 366.103 451.479 365.436 450.781 364.883 450.007 C 364.331 449.234 363.893 448.384 363.585 447.447 C 363.277 446.511 363.098 445.488 363.062 444.367 C 363.026 443.247 363.133 442.029 363.398 440.703 C 363.663 439.378 364.085 437.945 364.679 436.393 C 364.729 436.263 364.792 436.139 364.867 436.02 C 364.943 435.901 365.03 435.788 365.128 435.679 C 365.226 435.571 365.335 435.468 365.453 435.37 C 365.571 435.272 365.698 435.179 365.833 435.09 C 365.968 435.002 366.111 434.918 366.26 434.839 C 366.409 434.76 366.565 434.686 366.725 434.616 C 366.886 434.546 367.051 434.48 367.22 434.419 C 367.388 434.357 367.561 434.3 367.735 434.246 C 367.909 434.192 368.085 434.142 368.262 434.096 C 368.439 434.051 368.617 434.009 368.794 433.97 C 368.971 433.931 369.146 433.896 369.32 433.864 C 369.494 433.832 369.665 433.803 369.833 433.778 C 370.001 433.753 370.165 433.73 370.324 433.71 C 370.484 433.691 370.638 433.674 370.785 433.66 C 370.932 433.646 371.073 433.635 371.206 433.626 C 371.339 433.617 371.464 433.611 371.579 433.606 C 372.308 433.58 373.037 433.553 373.766 433.526 C 374.495 433.499 375.224 433.472 375.953 433.445 C 376.682 433.419 377.411 433.392 378.14 433.366 C 378.869 433.339 379.598 433.313 380.327 433.287 C 381.056 433.261 381.785 433.235 382.514 433.21 C 383.243 433.185 383.972 433.16 384.701 433.135 C 385.431 433.111 386.16 433.087 386.889 433.063 C 387.618 433.04 388.347 433.017 389.076 432.995 C 389.805 432.973 390.534 432.952 391.264 432.931 C 391.993 432.91 392.722 432.89 393.451 432.871 C 394.181 432.852 394.91 432.834 395.639 432.817 C 396.368 432.8 397.098 432.784 397.827 432.769 C 398.556 432.754 399.285 432.74 400.015 432.728 C 400.744 432.715 401.474 432.703 402.203 432.693 C 402.933 432.683 403.662 432.674 404.391 432.667 C 405.12 432.659 405.85 432.653 406.579 432.648 C 407.47 432.642 408.343 432.67 409.2 432.727 C 410.058 432.784 410.9 432.87 411.728 432.983 C 412.556 433.095 413.371 433.234 414.174 433.395 C 414.978 433.555 415.771 433.738 416.554 433.939 C 417.338 434.141 418.112 434.36 418.88 434.595 C 419.648 434.829 420.409 435.079 421.166 435.34 C 421.923 435.601 422.675 435.873 423.425 436.152 C 424.175 436.432 424.923 436.719 425.671 437.009 C 426.419 437.3 427.167 437.594 427.917 437.889 C 428.668 438.183 429.421 438.478 430.178 438.769 C 430.935 439.061 431.697 439.348 432.465 439.629 C 433.233 439.909 434.009 440.183 434.793 440.445 C 435.577 440.708 436.37 440.959 437.174 441.196 C 437.979 441.433 438.795 441.655 439.624 441.859 C 440.453 442.064 441.296 442.25 442.154 442.414 C 443.012 442.578 443.887 442.72 444.779 442.836 C 445.07 442.874 445.362 442.903 445.655 442.923 C 445.949 442.943 446.243 442.954 446.537 442.956 C 446.832 442.958 447.127 442.952 447.422 442.938 C 447.717 442.923 448.013 442.901 448.308 442.871 C 448.604 442.841 448.899 442.803 449.194 442.758 C 449.489 442.713 449.784 442.661 450.078 442.602 C 450.372 442.543 450.666 442.477 450.958 442.405 C 451.251 442.333 451.542 442.254 451.832 442.169 C 452.122 442.084 452.411 441.993 452.698 441.896 C 452.985 441.8 453.271 441.698 453.554 441.59 C 453.838 441.483 454.119 441.37 454.398 441.252 C 454.678 441.135 454.955 441.012 455.229 440.885 C 455.504 440.759 455.776 440.628 456.045 440.492 C 456.314 440.357 456.58 440.218 456.843 440.075 C 457.106 439.933 457.365 439.786 457.621 439.637 C 457.877 439.487 458.13 439.335 458.379 439.179 C 458.507 439.099 458.667 438.964 458.855 438.779 C 459.042 438.594 459.258 438.36 459.496 438.082 C 459.735 437.805 459.996 437.485 460.277 437.127 C 460.558 436.769 460.858 436.375 461.172 435.949 C 461.486 435.524 461.815 435.067 462.154 434.585 C 462.493 434.104 462.842 433.597 463.197 433.072 C 463.553 432.547 463.914 432.004 464.276 431.447 C 464.639 430.891 465.003 430.323 465.364 429.747 C 465.725 429.172 466.084 428.59 466.435 428.008 C 466.787 427.426 467.131 426.844 467.464 426.267 C 467.797 425.691 468.118 425.121 468.423 424.562 C 468.729 424.003 469.019 423.457 469.289 422.928 C 469.559 422.4 469.808 421.889 470.033 421.403 C 470.258 420.916 470.459 420.454 470.63 420.022 C 470.802 419.591 470.945 419.189 471.054 418.824 C 471.164 418.46 471.24 418.131 471.279 417.845 C 471.337 417.42 471.333 417 471.272 416.587 C 471.211 416.173 471.095 415.767 470.928 415.367 C 470.762 414.968 470.545 414.575 470.286 414.189 C 470.026 413.804 469.723 413.426 469.383 413.056 C 469.044 412.687 468.667 412.325 468.26 411.971 C 467.853 411.617 467.415 411.272 466.953 410.935 C 466.492 410.599 466.006 410.271 465.502 409.952 C 464.999 409.634 464.478 409.324 463.945 409.024 C 463.413 408.725 462.869 408.435 462.32 408.155 C 461.772 407.875 461.218 407.605 460.666 407.345 C 460.114 407.086 459.564 406.837 459.021 406.599 C 458.479 406.361 457.944 406.135 457.424 405.919 C 456.904 405.704 456.398 405.5 455.912 405.308 C 455.427 405.116 454.963 404.936 454.526 404.768 C 454.089 404.6 453.678 404.445 453.302 404.302 C 452.925 404.159 452.582 404.03 452.279 403.913 C 452.077 403.836 451.875 403.757 451.674 403.676 C 451.473 403.596 451.272 403.515 451.071 403.433 C 450.87 403.352 450.67 403.269 450.469 403.186 C 450.269 403.103 450.069 403.019 449.868 402.934 C 449.668 402.85 449.468 402.766 449.268 402.681 C 449.068 402.597 448.869 402.513 448.669 402.428 C 448.469 402.344 448.269 402.259 448.069 402.175 C 447.869 402.091 447.669 402.007 447.468 401.924 C 447.268 401.841 447.067 401.759 446.866 401.677 C 446.665 401.596 446.464 401.515 446.262 401.435 C 446.061 401.355 445.859 401.277 445.656 401.2 C 445.454 401.123 445.251 401.047 445.048 400.973 C 444.845 400.898 444.641 400.826 444.437 400.755 C 444.232 400.684 444.028 400.614 443.822 400.547 C 443.616 400.48 443.41 400.415 443.202 400.352 C 442.995 400.288 442.788 400.227 442.579 400.169 C 441.316 399.816 440.019 399.485 438.693 399.176 C 437.368 398.867 436.015 398.578 434.639 398.31 C 433.264 398.041 431.866 397.793 430.454 397.563 C 429.041 397.332 427.613 397.12 426.176 396.925 C 424.739 396.73 423.293 396.551 421.845 396.388 C 420.397 396.225 418.946 396.077 417.499 395.944 C 416.053 395.81 414.61 395.691 413.177 395.583 C 411.744 395.476 410.322 395.381 408.916 395.298 C 407.511 395.214 406.122 395.142 404.756 395.079 C 403.391 395.016 402.048 394.963 400.735 394.918 C 399.422 394.873 398.138 394.837 396.89 394.807 C 395.643 394.777 394.431 394.754 393.262 394.736 C 392.093 394.718 390.966 394.705 389.888 394.696 C 388.811 394.687 387.782 394.682 386.808 394.68 C 385.834 394.677 384.915 394.677 384.058 394.678 C 383.201 394.679 382.406 394.681 381.679 394.683 Z" stroke="none" style="fill: rgb(255, 204, 20);"/>
  <path d="M 469.537 372.558 C 469.002 372.617 470.065 373.524 470.137 374.058 C 470.368 375.779 470.436 377.522 470.437 379.258 C 470.469 443.191 463.742 507.455 470.237 571.058 C 470.918 577.727 483.537 572.963 490.237 573.158 C 497.34 573.364 504.451 572.796 511.537 572.258 C 512.389 572.193 513.832 572.206 513.937 571.358 C 515.051 562.334 514.281 519.833 514.237 514.858 C 514.201 510.725 511.35 505.511 514.137 502.458 C 516.034 500.381 518.713 505.817 520.537 507.958 C 529.41 518.37 537.393 532.629 545.237 543.658 C 550.857 551.56 556.493 559.478 562.137 567.358 C 563.55 569.331 564.166 572.643 566.537 573.158 C 576.013 575.216 606.091 571.86 614.237 569.458 C 614.429 569.401 609.76 562.837 609.237 562.158 C 604.214 555.637 599.767 548.953 595.237 542.158 C 583.777 524.967 570.937 506.737 558.337 490.158 C 553.466 483.749 548.861 477.818 544.337 471.158 C 543.556 470.009 541.87 468.898 542.237 467.558 C 544.399 459.675 553.496 450.221 558.237 443.558 C 567.92 429.949 577.988 416.532 587.237 402.658 C 592.231 395.167 597.698 388.089 602.237 380.258 C 603.585 377.933 608.705 374.321 606.237 373.258 C 599.249 370.247 591.044 372.341 583.437 372.158 C 575.806 371.974 567.879 370.068 560.537 372.158 C 557.478 373.029 557.183 377.568 555.337 380.158 C 550.493 386.956 545.006 393.302 540.237 400.158 C 535.147 407.475 530.111 414.829 525.037 422.158 C 522.891 425.258 515.506 435.668 515.037 434.558 C 508.636 419.394 520.758 390.484 513.137 376.258 C 512.491 375.052 514.698 372.302 513.337 372.158 C 500.795 370.831 476.998 371.74 469.537 372.558 Z M 513.937 532.858 C 514.322 533.781 513.83 532.601 513.937 532.858 Z" fill="#000000" stroke="none" style="stroke-linejoin: round; stroke-linecap: round;"/>
</svg>