<?xml version="1.0" encoding="utf-8"?>
<svg version="1.1" viewBox="0 0 1080 1080" width="720" height="720" xmlns="http://www.w3.org/2000/svg">
  <defs/>
  <path d="M 650 185 L 710 187.5 L 747.501 195 L 792.499 210 L 832.5 232.501 L 860 252.499 L 887.5 275 L 929.999 315.001 L 954.999 340.001 L 977.5 367.501 L 982.499 372.5 L 1007.499 377.5 L 1012.499 385 L 1012.499 414.999 L 1042.499 414.999 L 1052.5 425 L 1052.5 457.5 L 1047.5 469.999 L 1067.499 517.5 L 1077.5 557.501 L 1080 582.499 L 1080 604.999 L 1075 637.501 L 1062.499 667.501 L 1042.499 692.501 L 1012.499 714.999 L 970 735 L 962.499 739.999 L 952.5 739.999 L 950 755 L 942.5 760 L 870 762.5 L 304.999 887.5 L 252.499 895 L 210 895 L 174.999 887.5 L 150.001 874.999 L 125.001 855.001 L 72.501 802.501 L 42.501 762.5 L 27.5 737.499 L 9.999 695 L 0 655 L 0 590 L 9.999 554.999 L 30 515 L 57.5 480 L 77.5 460 L 80 402.5 L 87.5 395.001 L 100.001 395.001 L 100.001 382.5 L 107.5 375 L 192.5 372.5 L 242.5 342.501 L 287.501 317.5 L 334.999 292.5 L 405 260.001 L 482.5 227.499 L 545 205.001 L 592.5 192.5 L 622.5 187.5 L 650 185 Z" fill="#99D2ED" style=""/>
  <path d="M 650 185 L 710 187.5 L 747.501 195 L 792.499 210 L 832.5 232.501 L 860 252.499 L 887.5 275 L 929.999 315.001 L 954.999 340.001 L 977.5 367.501 L 982.499 372.5 L 1007.499 377.5 L 1012.499 385 L 1012.499 414.999 L 1042.499 414.999 L 1052.5 425 L 1052.5 457.5 L 1047.5 469.999 L 1067.499 517.5 L 1077.5 557.501 L 1080 582.499 L 1080 604.999 L 1075 637.501 L 1062.499 667.501 L 1042.499 692.501 L 1012.499 714.999 L 975 732.5 L 970 730 L 970 617.5 L 962.499 610.001 L 907.499 610.001 L 902.499 615 L 899.999 667.501 L 872.499 667.501 L 870 617.5 L 862.5 610.001 L 807.5 610.001 L 802.501 615 L 799.999 627.5 L 792.499 627.5 L 787.5 612.501 L 782.5 610.001 L 667.501 610.001 L 662.499 615 L 659.999 627.5 L 652.5 627.5 L 650 577.499 L 642.5 567.5 L 702.5 565 L 710 557.501 L 712.499 547.5 L 727.5 542.5 L 732.5 527.499 L 739.999 527.499 L 744.999 542.5 L 747.501 545 L 882.499 545 L 890 537.5 L 890 444.999 L 882.499 437.5 L 872.499 435 L 867.5 420.001 L 862.5 417.499 L 747.501 417.499 L 742.499 422.501 L 742.499 462.5 L 739.999 475.001 L 732.5 475.001 L 730 425 L 722.5 417.499 L 587.5 417.499 L 582.499 422.501 L 579.999 435 L 572.5 435 L 567.5 420.001 L 562.5 417.499 L 507.5 417.499 L 502.501 422.501 L 499.999 494.999 L 472.499 494.999 L 469.999 425 L 462.5 417.499 L 407.5 417.499 L 402.5 422.501 L 400 435 L 392.499 435 L 387.499 420.001 L 382.5 417.499 L 267.5 417.499 L 262.501 422.501 L 262.501 462.5 L 260.001 475.001 L 252.499 475.001 L 247.5 460 L 232.501 455 L 232.501 447.501 L 247.5 442.499 L 250 437.5 L 250 405 L 242.5 397.501 L 232.501 395.001 L 227.499 380 L 222.5 377.5 L 192.5 375 L 205.001 364.999 L 242.5 342.501 L 287.501 317.5 L 334.999 292.5 L 405 260.001 L 482.5 227.499 L 545 205.001 L 592.5 192.5 L 622.5 187.5 L 650 185 Z" fill="#F5AB35" style=""/>
  <path d="M 77.5 460 L 100.001 467.499 L 100.001 475.001 L 85 480 L 82.5 482.5 L 82.5 520 L 87.5 524.999 L 100.001 527.499 L 105 542.5 L 107.5 545 L 222.5 545 L 229.999 537.5 L 232.501 527.499 L 247.5 524.999 L 260.001 527.499 L 265 542.5 L 267.5 545 L 402.5 545 L 410 537.5 L 412.5 527.499 L 419.999 527.499 L 425 542.5 L 427.5 545 L 562.5 545 L 570 537.5 L 572.5 507.5 L 579.999 507.5 L 582.499 522.499 L 582.499 560 L 587.5 567.5 L 527.499 570 L 522.499 575 L 520 587.5 L 505.001 592.5 L 499.999 607.499 L 485 612.501 L 480 627.5 L 472.499 627.5 L 467.499 612.501 L 462.5 610.001 L 347.5 610.001 L 342.501 615 L 342.501 655 L 340.001 667.501 L 325 672.5 L 320 687.499 L 312.499 687.499 L 307.499 672.5 L 292.5 667.501 L 290 650 L 292.5 640.001 L 307.499 634.999 L 312.499 620 L 327.5 615 L 330 610.001 L 330 577.499 L 322.5 570 L 267.5 570 L 262.501 575 L 260.001 587.5 L 245 592.5 L 240 607.499 L 232.501 607.499 L 229.999 577.499 L 222.5 570 L 167.5 570 L 162.5 575 L 162.5 732.5 L 167.5 737.499 L 222.5 737.499 L 229.999 730 L 232.501 720.001 L 240 720.001 L 245 735 L 247.5 737.499 L 322.5 737.499 L 330 730 L 332.499 720.001 L 340.001 720.001 L 345 735 L 347.5 737.499 L 482.5 737.499 L 490 730 L 492.5 659.999 L 499.999 659.999 L 502.499 732.5 L 507.5 737.499 L 562.5 737.499 L 570 730 L 572.5 659.999 L 579.999 659.999 L 582.499 732.5 L 587.5 737.499 L 642.5 737.499 L 650 730 L 652.5 720.001 L 659.999 720.001 L 664.999 735 L 667.501 737.499 L 782.5 737.499 L 790 730 L 792.499 700 L 807.5 697.5 L 819.999 700 L 822.499 714.999 L 822.499 752.5 L 827.499 757.5 L 870 760 L 860 764.999 L 304.999 887.5 L 252.499 895 L 210 895 L 174.999 887.5 L 150.001 874.999 L 125.001 855.001 L 72.501 802.501 L 42.501 762.5 L 27.5 737.499 L 9.999 695 L 0 655 L 0 590 L 9.999 554.999 L 30 515 L 57.5 480 L 77.5 460 Z" fill="#F5AB35" style=""/>
  <path d="M 532.501 579.999 L 640.001 579.999 L 640.001 727.5 L 592.5 727.5 L 592.5 647.5 L 560 647.5 L 560 727.5 L 512.5 727.5 L 512.5 647.5 L 492.5 647.5 L 492.5 620 L 512.5 620 L 512.5 600 L 532.501 600 L 532.501 579.999 Z" style=""/>
  <path d="M 592.5 427.5 L 720.001 427.5 L 720.001 535 L 700 535 L 700 554.999 L 592.5 554.999 L 592.5 527.499 L 672.5 527.499 L 672.5 515 L 592.5 515 L 592.5 494.999 L 572.5 494.999 L 572.5 447.501 L 592.5 447.501 L 592.5 427.5 Z" style=""/>
  <path d="M 172.499 579.999 L 220 579.999 L 220 640.001 L 232.501 640.001 L 232.501 620 L 252.499 620 L 252.499 600 L 272.5 600 L 272.5 579.999 L 320 579.999 L 320 607.499 L 300 607.499 L 300 627.5 L 279.999 627.5 L 279.999 647.5 L 260.001 647.5 L 260.001 659.999 L 279.999 659.999 L 279.999 680 L 300 680 L 300 700 L 320 700 L 320 727.5 L 252.499 727.5 L 252.499 707.5 L 232.501 707.5 L 232.501 687.499 L 220 687.499 L 220 727.5 L 172.499 727.5 L 172.499 579.999 Z" style=""/>
  <path d="M 112.5 387.499 L 220 387.499 L 220 407.5 L 240 407.5 L 240 435 L 192.5 435 L 192.5 414.999 L 140 414.999 L 140 447.501 L 220 447.501 L 220 467.499 L 240 467.499 L 240 515 L 220 515 L 220 535 L 112.5 535 L 112.5 515 L 92.499 515 L 92.499 487.5 L 140 487.5 L 140 507.5 L 192.5 507.5 L 192.5 475.001 L 112.5 475.001 L 112.5 455 L 92.499 455 L 92.499 407.5 L 112.5 407.5 L 112.5 387.499 Z" style=""/>
  <path d="M 812.5 620 L 860 620 L 860 680 L 912.5 680 L 912.5 620 L 959.999 620 L 959.999 727.5 L 940 727.5 L 940 747.501 L 832.5 747.501 L 832.5 720.001 L 912.5 720.001 L 912.5 707.5 L 832.5 707.5 L 832.5 687.499 L 812.5 687.499 L 812.5 620 Z" style=""/>
  <path d="M 672.5 620 L 780 620 L 780 640.001 L 799.999 640.001 L 799.999 687.499 L 700 687.499 L 700 700 L 780 700 L 780 727.5 L 672.5 727.5 L 672.5 707.5 L 652.5 707.5 L 652.5 640.001 L 672.5 640.001 L 672.5 620 Z" style=""/>
  <path d="M 352.5 620 L 460 620 L 460 640.001 L 480 640.001 L 480 727.5 L 352.5 727.5 L 352.5 707.5 L 332.499 707.5 L 332.499 680 L 352.5 680 L 352.5 659.999 L 432.5 659.999 L 432.5 647.5 L 352.5 647.5 L 352.5 620 Z" style=""/>
  <path d="M 752.5 427.5 L 860 427.5 L 860 447.501 L 879.999 447.501 L 879.999 535 L 752.5 535 L 752.5 515 L 732.5 515 L 732.5 487.5 L 752.5 487.5 L 752.5 467.499 L 832.5 467.499 L 832.5 455 L 752.5 455 L 752.5 427.5 Z" style=""/>
  <path d="M 272.5 427.5 L 380 427.5 L 380 447.501 L 400 447.501 L 400 535 L 272.5 535 L 272.5 515 L 252.499 515 L 252.499 487.5 L 272.5 487.5 L 272.5 467.499 L 352.5 467.499 L 352.5 455 L 272.5 455 L 272.5 427.5 Z" style=""/>
  <path d="M 412.5 427.5 L 460 427.5 L 460 507.5 L 512.5 507.5 L 512.5 427.5 L 560 427.5 L 560 535 L 432.5 535 L 432.5 515 L 412.5 515 L 412.5 427.5 Z" style=""/>
  <path d="M 952.5 387.499 L 1000 387.499 L 1000 427.5 L 1039.999 427.5 L 1039.999 455 L 1000 455 L 1000 535 L 952.5 535 L 952.5 455 L 912.5 455 L 912.5 427.5 L 952.5 427.5 L 952.5 387.499 Z" style=""/>
  <path d="M 947.5 375 L 1002.5 375 L 1012.499 385 L 1012.499 414.999 L 1042.499 414.999 L 1052.5 425 L 1052.5 457.5 L 1044.999 467.499 L 1012.499 467.499 L 1012.499 537.5 L 1002.5 547.5 L 947.5 547.5 L 940 540 L 940 467.499 L 907.499 467.499 L 899.999 460 L 899.999 422.501 L 907.499 414.999 L 940 414.999 L 940 382.5 L 947.5 375 Z M 952.5 387.499 L 952.5 427.5 L 912.5 427.5 L 912.5 455 L 952.5 455 L 952.5 535 L 1000 535 L 1000 455 L 1039.999 455 L 1039.999 427.5 L 1000 427.5 L 1000 387.499 L 952.5 387.499 Z" fill="#99D2ED" style=""/>
  <path d="M 620 455 L 672.5 455 L 672.5 487.5 L 620 487.5 L 620 455 Z" fill="#97D1ED" style=""/>
  <path d="M 380 687.499 L 432.5 687.499 L 432.5 700 L 380 700 L 380 687.499 Z" fill="#96D1ED" style=""/>
  <path d="M 700 647.5 L 752.5 647.5 L 752.5 659.999 L 700 659.999 L 700 647.5 Z" fill="#96D1ED" style=""/>
  <path d="M 780 494.999 L 832.5 494.999 L 832.5 507.5 L 780 507.5 L 780 494.999 Z" fill="#96D1ED" style=""/>
  <path d="M 300 494.999 L 352.5 494.999 L 352.5 507.5 L 300 507.5 L 300 494.999 Z" fill="#96D1ED" style=""/>
  <path d="M 560 607.499 L 592.5 607.499 L 592.5 620 L 560 620 L 560 607.499 Z" fill="#96D1ED" style=""/>
  <path d="M 152.501 487.5 L 180.001 487.5 L 180.001 494.999 L 152.501 494.999 L 152.501 487.5 Z" fill="#F5AB35" style=""/>
  <path d="M 632.499 467.499 L 659.999 467.499 L 659.999 475.001 L 632.499 475.001 L 632.499 467.499 Z" fill="#F5AB35" style=""/>
  <path d="M 152.501 427.5 L 180.001 427.5 L 180.001 435 L 152.501 435 L 152.501 427.5 Z" fill="#F5AB35" style=""/>
</svg>